<?xml version="1.0" standalone="no"?>
<!DOCTYPE svg PUBLIC "-//W3C//DTD SVG 20010904//EN"
 "http://www.w3.org/TR/2001/REC-SVG-20010904/DTD/svg10.dtd">
<svg version="1.0" xmlns="http://www.w3.org/2000/svg"
 width="96.000000pt" height="96.000000pt" viewBox="0 0 96.000000 96.000000"
 preserveAspectRatio="xMidYMid meet">
<metadata>
Created by potrace 1.14, written by Peter Selinger 2001-2017
</metadata>
<g transform="translate(0.000000,96.000000) scale(0.100000,-0.100000)"
fill="#000000" stroke="none">
<path d="M140 950 c0 -17 -3 -25 -22 -44 -9 -10 -15 -23 -12 -28 3 -4 1 -8 -4
-8 -5 0 -30 -36 -56 -80 l-46 -80 0 -338 c0 -316 1 -340 18 -355 17 -15 64
-17 464 -17 418 0 446 1 461 18 15 17 17 56 17 360 0 289 -2 343 -15 356 -8 8
-15 21 -15 28 0 8 -8 23 -17 34 -10 10 -27 36 -38 57 -11 20 -23 37 -28 37 -4
0 -6 4 -3 9 3 5 -1 12 -10 15 -8 3 -12 10 -9 16 3 5 1 10 -5 10 -6 0 -8 5 -5
10 4 7 -110 10 -334 10 -221 0 -341 -4 -341 -10z m648 -63 c7 -5 10 -13 7 -18
-4 -5 -1 -9 4 -9 6 0 11 -7 11 -15 0 -8 5 -15 11 -15 5 0 8 -4 4 -9 -3 -6 3
-14 12 -20 10 -6 15 -11 11 -11 -4 0 1 -15 12 -32 11 -18 20 -35 20 -38 0 -3
-179 -5 -398 -5 -440 1 -413 -4 -366 67 13 21 24 42 24 47 0 5 7 14 15 21 9 7
13 15 11 17 -3 3 0 10 6 17 12 13 595 16 616 3z"/>
</g>
</svg>
